<svg width="1024" height="1024" viewBox="0 0 1024 1024" xmlns="http://www.w3.org/2000/svg">
  <!-- Arbor 图标(0.2.0 定稿 · 双色):绿→蓝对角渐变 = 自然×智能,
       白色有机树错落生长,顶节点 = 活着的那段对话。 -->
  <defs>
    <linearGradient id="bg" x1="0" y1="1" x2="1" y2="0">
      <stop offset="0" stop-color="#1ea86c"/>
      <stop offset="1" stop-color="#2f7ff0"/>
    </linearGradient>
    <linearGradient id="sheen" x1="0" y1="0" x2="0" y2="1">
      <stop offset="0" stop-color="rgba(255,255,255,.18)"/>
      <stop offset=".5" stop-color="rgba(255,255,255,0)"/>
    </linearGradient>
  </defs>
  <rect x="96" y="96" width="832" height="832" rx="188" fill="url(#bg)"/>
  <rect x="96" y="96" width="832" height="832" rx="188" fill="url(#sheen)"/>
  <path d="M 420 806 H 616" stroke="rgba(255,255,255,.34)" stroke-width="22" stroke-linecap="round" fill="none"/>
  <g stroke="#ffffff" stroke-width="30" stroke-linecap="round" fill="none">
    <path d="M 520 738 C 500 620 540 460 536 322"/>
    <path d="M 508 604 C 468 546 418 514 344 474"/>
    <path d="M 524 490 C 568 452 612 432 672 410"/>
  </g>
  <circle cx="520" cy="738" r="44" fill="#ffffff"/>
  <circle cx="332" cy="466" r="36" fill="#ffffff"/>
  <circle cx="684" cy="404" r="36" fill="#ffffff"/>
  <circle cx="536" cy="318" r="84" fill="rgba(255,255,255,.24)"/>
  <circle cx="536" cy="318" r="50" fill="#ffffff"/>
</svg>
